<svg xmlns="http://www.w3.org/2000/svg" style="isolation:isolate" width="997.519" height="562.853" viewBox="0 0 748.139 422.14"><defs><clipPath id="a"><path d="M0 0h748.139v422.14H0z"/></clipPath></defs><g fill="#3F3D56" clip-path="url(#a)"><path fill-rule="evenodd" d="M691.314 5.421H428.282V0H309.014v5.421H44.895c-9.827 0-17.794 7.967-17.794 17.794v360.168a17.794 17.794 0 0 0 17.794 17.793h646.419c9.827 0 17.794-7.967 17.794-17.794V23.212c-.001-9.826-7.966-17.791-17.792-17.792l-.002.001zm-14.558 15.414h-617.3a16.713 16.713 0 0 0-8.392 2.128c-5.068 2.836-8.523 8.228-8.6 14.453v335.619c.115 9.27 7.722 16.693 16.992 16.581h617.3c9.27.112 16.877-7.311 16.992-16.581V37.414c-.116-9.269-7.721-16.69-16.99-16.579h-.002z"/><path d="M726.915 386.48h-61.9v-3.056c0-.335-.4-.606-.885-.606H642.9c-.489 0-.885.271-.885.606v3.056h-13.26v-3.056c0-.335-.4-.606-.885-.606h-21.223c-.489 0-.885.271-.885.606v3.056H592.5v-3.056c0-.335-.4-.606-.885-.606h-21.226c-.489 0-.885.271-.885.606v3.056H556.24v-3.056c0-.335-.4-.606-.885-.606h-21.222c-.488 0-.885.271-.885.606v3.056h-13.265v-3.056c0-.335-.4-.606-.885-.606h-21.223c-.489 0-.885.271-.885.606v3.056h-13.265v-3.056c0-.335-.4-.606-.885-.606h-21.218c-.489 0-.885.271-.885.606v3.056h-13.269v-3.056c0-.335-.4-.606-.885-.606H280.331c-.488 0-.885.271-.885.606v3.056h-13.264v-3.056c0-.335-.4-.606-.885-.606h-21.224c-.489 0-.885.271-.885.606v3.056h-13.264v-3.056c0-.335-.4-.606-.885-.606h-21.222c-.489 0-.885.271-.885.606v3.056h-13.265v-3.056c0-.335-.4-.606-.885-.606h-21.223c-.489 0-.885.271-.885.606v3.056h-13.262v-3.056c0-.335-.4-.606-.885-.606H135.3c-.488 0-.885.271-.885.606v3.056h-13.262v-3.056c0-.335-.4-.606-.885-.606H99.044c-.489 0-.885.271-.885.606v3.056H84.9v-3.056c0-.335-.4-.606-.885-.606H62.783c-.489 0-.885.271-.885.606v3.056H21.224C9.5 386.48 0 392.993 0 401.023v6.575c0 8.031 9.5 14.542 21.224 14.542h705.691c11.721 0 21.223-6.51 21.224-14.542v-6.575c0-8.032-9.5-14.542-21.224-14.542v-.001z"/></g></svg>